<?xml version="1.0" encoding="utf-8"?>
<!-- Generator: Adobe Illustrator 26.0.3, SVG Export Plug-In . SVG Version: 6.00 Build 0)  -->
<svg version="1.1" id="Layer_1" xmlns="http://www.w3.org/2000/svg" xmlns:xlink="http://www.w3.org/1999/xlink" x="0px" y="0px"
	 viewBox="0 0 512 512" style="enable-background:new 0 0 512 512;" xml:space="preserve">
<style type="text/css">
	.st0{fill:#EEEEEE;}
</style>
<path class="st0" d="M152.1,38.2c9.8,8.9,10.6,24,1.7,33.9l-72,80c-4.4,4.8-10.6,7.7-17.2,7c-6.6,1.1-12.9-1.5-17.6-7l-40-40
	c-9.4-8.5-9.4-23.7,0-33.1c9.4-9.4,24.6-9.4,33.9,0l22.1,22.1l55.1-61.2C127,30.1,142.2,29.3,152.1,38.2L152.1,38.2z M152.1,198.2
	c9.8,8.8,10.6,24,1.7,33.9l-72,80c-4.4,4.8-10.6,7.7-17.2,7c-6.6,1.1-12.9-1.5-17.6-7l-40-40c-9.4-8.5-9.4-23.7,0-33.1
	c9.4-9.3,24.6-9.3,33.9,0l22.1,22.1l55.1-61.2C127,190.1,142.2,189.3,152.1,198.2L152.1,198.2z M224,96c0-17.7,14.3-32,32-32h224
	c17.7,0,32,14.3,32,32c0,17.7-14.3,32-32,32H256C238.3,128,224,113.7,224,96L224,96z M224,256c0-17.7,14.3-32,32-32h224
	c17.7,0,32,14.3,32,32s-14.3,32-32,32H256C238.3,288,224,273.7,224,256z M160,416c0-17.7,14.3-32,32-32h288c17.7,0,32,14.3,32,32
	s-14.3,32-32,32H192C174.3,448,160,433.7,160,416z M0,416c0-26.5,21.5-48,48-48s48,21.5,48,48s-21.5,48-48,48S0,442.5,0,416z"/>
</svg>
