<?xml version="1.0" encoding="utf-8"?>
<!-- Generator: Adobe Illustrator 26.0.3, SVG Export Plug-In . SVG Version: 6.00 Build 0)  -->
<svg version="1.1" id="Layer_1" xmlns="http://www.w3.org/2000/svg" xmlns:xlink="http://www.w3.org/1999/xlink" x="0px" y="0px"
	 viewBox="0 0 512 512" style="enable-background:new 0 0 512 512;" xml:space="preserve">
<style type="text/css">
	.st0{fill:#EEEEEE;}
</style>
<path class="st0" d="M288,256c0,17.7-14.3,32-32,32s-32-14.3-32-32s14.3-32,32-32S288,238.3,288,256z M112,256
	c0-79.5,64.5-144,144-144s144,64.5,144,144s-64.5,144-144,144S112,335.5,112,256z M256,336c44.2,0,80-35.8,80-80s-35.8-80-80-80
	s-80,35.8-80,80S211.8,336,256,336z M512,256c0,141.4-114.6,256-256,256S0,397.4,0,256S114.6,0,256,0S512,114.6,512,256z M256,64
	C149.1,64,64,149.1,64,256c0,106,85.1,192,192,192c106,0,192-86,192-192C448,149.1,362,64,256,64z"/>
</svg>
