<?xml version="1.0" encoding="utf-8"?>
<!-- Generator: Adobe Illustrator 26.0.3, SVG Export Plug-In . SVG Version: 6.00 Build 0)  -->
<svg version="1.1" id="Layer_1" xmlns="http://www.w3.org/2000/svg" xmlns:xlink="http://www.w3.org/1999/xlink" x="0px" y="0px"
	 viewBox="0 0 512 512" style="enable-background:new 0 0 512 512;" xml:space="preserve">
<style type="text/css">
	.st0{fill:#EEEEEE;}
</style>
<path class="st0" d="M512,256c0,141.4-114.6,256-256,256S0,397.4,0,256S114.6,0,256,0S512,114.6,512,256z M256,64
	c-17.7,0-32,14.3-32,32c0,17.7,14.3,32,32,32s32-14.3,32-32C288,78.3,273.7,64,256,64z M256,416c35.3,0,64-28.7,64-64
	c0-17.4-6.9-33.1-18.1-44.6l63.2-145.7c6.2-12.2,0.7-26.3-11.4-31.7c-12.2-5.3-26.3,0.2-31.7,12.3L257.9,288c-0.6,0-1.3-0.9-1.9-0.9
	c-35.3,0-64,29.6-64,64.9S220.7,416,256,416L256,416z M144,112c-17.7,0-32,14.3-32,32s14.3,32,32,32s32-14.3,32-32
	S161.7,112,144,112z M96,288c17.7,0,32-14.3,32-32s-14.3-32-32-32c-17.7,0-32,14.3-32,32S78.3,288,96,288z M416,224
	c-17.7,0-32,14.3-32,32s14.3,32,32,32s32-14.3,32-32S433.7,224,416,224z"/>
</svg>
